<svg xmlns="http://www.w3.org/2000/svg" viewBox="0 0 20 20"><defs><style>.cls-1{fill:#383f51;}.cls-2{fill:#fff;}</style></defs><g id="Layer_2" data-name="Layer 2"><g id="Layer_1-2" data-name="Layer 1"><rect class="cls-1" width="20" height="20" rx="2"/><path class="cls-2" d="M14.34,4.11a1,1,0,0,0-.76.47,2.2,2.2,0,0,0-.27.73,1.55,1.55,0,0,0,.39,1.4.51.51,0,0,0,.26.17.74.74,0,0,0,.57-.09.9.9,0,0,0,.27-.22,1.49,1.49,0,0,0,.37-.8A1.77,1.77,0,0,0,15,4.61a1,1,0,0,0-.39-.42A.75.75,0,0,0,14.34,4.11Z"/><path class="cls-2" d="M16.87,4.91a1.42,1.42,0,0,0-1.13.77,2,2,0,0,0-.22.49,1.3,1.3,0,0,0,0,.85.72.72,0,0,0,.57.5,1.35,1.35,0,0,0,.57-.15,1.9,1.9,0,0,0,.91-1.27c0-.09,0-.2,0-.25A1,1,0,0,0,17.23,5,.69.69,0,0,0,16.87,4.91Z"/><path class="cls-2" d="M11.92,5.77a1.24,1.24,0,0,0-.23.12,1.16,1.16,0,0,0-.32.43,2,2,0,0,0-.12.71,2,2,0,0,0,.21.79,1,1,0,0,0,.72.51.56.56,0,0,0,.33-.08A1.16,1.16,0,0,0,13,7.41,1.92,1.92,0,0,0,13,6.48a1.3,1.3,0,0,0-.54-.67A.59.59,0,0,0,11.92,5.77Z"/><path class="cls-2" d="M17.74,7.59a1.26,1.26,0,0,0-.61.18,1.64,1.64,0,0,0-.72.75,1.25,1.25,0,0,0-.11.29.92.92,0,0,0,0,.7.59.59,0,0,0,.58.36,1.16,1.16,0,0,0,.62-.17,1.7,1.7,0,0,0,.73-.79,1.45,1.45,0,0,0,.15-.62A.71.71,0,0,0,18,7.64,1,1,0,0,0,17.74,7.59Z"/><path class="cls-2" d="M14.3,8.06a1.42,1.42,0,0,0-.61.07,4.22,4.22,0,0,0-1.57,1,3.42,3.42,0,0,0-.65.76,1.28,1.28,0,0,0-.13.45.69.69,0,0,0,.54.65,1.78,1.78,0,0,0,.76,0,1.83,1.83,0,0,1,1.09.1,2.82,2.82,0,0,1,.68.43,2.41,2.41,0,0,0,.66.42.85.85,0,0,0,.35.05.81.81,0,0,0,.66-.56,2.72,2.72,0,0,0,0-.75,4.38,4.38,0,0,0-.27-1.29,2,2,0,0,0-1.09-1.19A2,2,0,0,0,14.3,8.06Z"/><path class="cls-2" d="M5.36,8.67A1,1,0,0,0,4.87,9a1.32,1.32,0,0,0-.32.59,1.68,1.68,0,0,0-.11.56,1.52,1.52,0,0,0,.28,1,1,1,0,0,0,.28.27.72.72,0,0,0,.75-.08,1.55,1.55,0,0,0,.61-1.18,1.43,1.43,0,0,0-.55-1.38A.67.67,0,0,0,5.36,8.67Z"/><path class="cls-2" d="M8.26,9.48a.86.86,0,0,0-.29,0,1.56,1.56,0,0,0-1.2,1,2.19,2.19,0,0,0-.16.58A1,1,0,0,0,7,12a.72.72,0,0,0,.32.08,1.52,1.52,0,0,0,1.16-.8,2.06,2.06,0,0,0,.28-1,.9.9,0,0,0-.41-.76Z"/><path class="cls-2" d="M3.14,10.29a1,1,0,0,0-.63.61,2.26,2.26,0,0,0-.1.48,1.46,1.46,0,0,0,.66,1.42.6.6,0,0,0,.62,0,1,1,0,0,0,.42-.52,1.85,1.85,0,0,0,.1-.52,1.42,1.42,0,0,0-.71-1.42A.55.55,0,0,0,3.14,10.29Z"/><path class="cls-2" d="M8.55,12.19a1.68,1.68,0,0,0-.46.24,1.65,1.65,0,0,0-.62.88.89.89,0,0,0,0,.76.6.6,0,0,0,.23.26,1.16,1.16,0,0,0,1.14-.2,1.94,1.94,0,0,0,.5-.57,1.47,1.47,0,0,0,.18-.88.7.7,0,0,0-.34-.46A.75.75,0,0,0,8.55,12.19Z"/><path class="cls-2" d="M5.43,12.6a1.73,1.73,0,0,0-.59.07,3.56,3.56,0,0,0-1.28.75,3,3,0,0,0-1,1.17.63.63,0,0,0,0,.57A.69.69,0,0,0,3,15.5a1.42,1.42,0,0,0,.77,0,1.89,1.89,0,0,1,1.11.08,2.52,2.52,0,0,1,.67.43,2.15,2.15,0,0,0,.75.44.53.53,0,0,0,.23,0,.75.75,0,0,0,.62-.36A.67.67,0,0,0,7.23,16a1.31,1.31,0,0,0,0-.34A4,4,0,0,0,7,14a2,2,0,0,0-.24-.54,2,2,0,0,0-.86-.76A2.42,2.42,0,0,0,5.43,12.6Z"/></g></g></svg>