<svg xmlns="http://www.w3.org/2000/svg" viewBox="0 0 300.1 63.96"><defs><style>.cls-1{font-size:25.77px;font-family:Terfens-Reg, Terfens;}.cls-1,.cls-2{fill:#383f51;}</style></defs><g id="Layer_2" data-name="Layer 2"><g id="Layer_1-2" data-name="Layer 1"><text class="cls-1" transform="translate(0 57.05)">Pet Search Engine</text><path class="cls-2" d="M283.39,0a4.08,4.08,0,0,0-3.12,2,8.86,8.86,0,0,0-1.1,3,6.44,6.44,0,0,0,1.59,5.78,2.39,2.39,0,0,0,1.07.66A3,3,0,0,0,284.2,11a3.92,3.92,0,0,0,1.09-.89,6.5,6.5,0,0,0,1.53-3.29,7.35,7.35,0,0,0-.56-4.75A4.24,4.24,0,0,0,284.67.32,2.79,2.79,0,0,0,283.39,0Z"/><path class="cls-2" d="M293.79,3.3a5.87,5.87,0,0,0-4.65,3.12,8.42,8.42,0,0,0-.9,2,5.49,5.49,0,0,0-.05,3.49,2.88,2.88,0,0,0,2.37,2,5,5,0,0,0,2.32-.59,7.78,7.78,0,0,0,3.72-5.2,8.39,8.39,0,0,0,.16-1,4,4,0,0,0-1.49-3.45A3,3,0,0,0,293.79,3.3Z"/><path class="cls-2" d="M273.47,6.79a4.67,4.67,0,0,0-.94.52,4.67,4.67,0,0,0-1.31,1.78,7.83,7.83,0,0,0-.49,2.91,7.46,7.46,0,0,0,.86,3.21,4,4,0,0,0,3,2.12,2.49,2.49,0,0,0,1.36-.35,4.12,4.12,0,0,0,1.68-1.85,4.6,4.6,0,0,0,.46-1.6,7.61,7.61,0,0,0-.32-3.79A5.15,5.15,0,0,0,275.5,7,2.44,2.44,0,0,0,273.47,6.79Z"/><path class="cls-2" d="M297.34,14.27a5.3,5.3,0,0,0-2.48.73,7,7,0,0,0-3,3.09,5.58,5.58,0,0,0-.44,1.2,3.7,3.7,0,0,0,.12,2.87,2.46,2.46,0,0,0,2.4,1.48,5.34,5.34,0,0,0,2.54-.7,7,7,0,0,0,3-3.24,6.23,6.23,0,0,0,.61-2.53,2.87,2.87,0,0,0-1.7-2.67A4,4,0,0,0,297.34,14.27Z"/><path class="cls-2" d="M283.22,16.22a6.13,6.13,0,0,0-2.49.27c-2,.6-3.8,1.76-6.42,4.06a12.83,12.83,0,0,0-2.66,3.11,5.26,5.26,0,0,0-.55,1.87,2.85,2.85,0,0,0,2.22,2.65c.73.22,1.16.23,3.11,0,2.22-.24,3.17-.16,4.46.41a10.67,10.67,0,0,1,2.79,1.77,10,10,0,0,0,2.72,1.69,3.16,3.16,0,0,0,1.44.23A3.29,3.29,0,0,0,290.52,30a12.48,12.48,0,0,0,.19-3.12,19,19,0,0,0-1.11-5.29,8.56,8.56,0,0,0-4.46-4.87A9.23,9.23,0,0,0,283.22,16.22Z"/><path class="cls-2" d="M246.57,18.69a3.85,3.85,0,0,0-2,1.17,5.55,5.55,0,0,0-1.34,2.43,7.49,7.49,0,0,0-.45,2.3,6.49,6.49,0,0,0,1.15,4.1,5,5,0,0,0,1.16,1.11,3.05,3.05,0,0,0,3.09-.33,6.43,6.43,0,0,0,2.48-4.85c.23-2.51-.6-4.63-2.24-5.65A2.62,2.62,0,0,0,246.57,18.69Z"/><path class="cls-2" d="M258.45,22a4.36,4.36,0,0,0-1.16-.09c-2,.17-3.84,1.68-5,4.08a9.12,9.12,0,0,0-.66,2.36,3.89,3.89,0,0,0,1.59,3.91,2.52,2.52,0,0,0,1.3.31,6.19,6.19,0,0,0,4.76-3.27,8.18,8.18,0,0,0,1.15-4,3.67,3.67,0,0,0-1.7-3.12Z"/><path class="cls-2" d="M237.44,25.35a4,4,0,0,0-2.56,2.51,8.29,8.29,0,0,0-.42,2c-.19,2.56.91,4.94,2.71,5.84a2.43,2.43,0,0,0,2.53-.1,4.19,4.19,0,0,0,1.74-2.12,7.37,7.37,0,0,0,.42-2.13c.14-2.66-1-5-3-5.84A2.42,2.42,0,0,0,237.44,25.35Z"/><path class="cls-2" d="M259.63,33.15a7.45,7.45,0,0,0-1.87,1,6.88,6.88,0,0,0-2.55,3.6,3.79,3.79,0,0,0,.12,3.15,2.49,2.49,0,0,0,.95,1.06c1.13.65,3.15.28,4.7-.84a8,8,0,0,0,2-2.34,6,6,0,0,0,.74-3.61,2.84,2.84,0,0,0-1.39-1.89A3.23,3.23,0,0,0,259.63,33.15Z"/><path class="cls-2" d="M246.86,34.84a6.58,6.58,0,0,0-2.45.29,15.16,15.16,0,0,0-5.22,3.06c-2.42,2-3.63,3.4-4.13,4.8a2.62,2.62,0,0,0,.07,2.36,3,3,0,0,0,1.7,1.39c.78.29,1.2.3,3.15.09,2.33-.25,3.29-.18,4.57.37a10.27,10.27,0,0,1,2.76,1.74,8.59,8.59,0,0,0,3.07,1.82,2.38,2.38,0,0,0,.93.16,3.13,3.13,0,0,0,2.56-1.48,2.73,2.73,0,0,0,.35-.8,4.6,4.6,0,0,0,.19-1.38,17.13,17.13,0,0,0-.94-6.54,8.27,8.27,0,0,0-1-2.2,8.42,8.42,0,0,0-3.53-3.12A10.7,10.7,0,0,0,246.86,34.84Z"/></g></g></svg>