<svg xmlns="http://www.w3.org/2000/svg" viewBox="0 0 29.22 22.66"><defs><style>.cls-1{fill:#383f51;}</style></defs><g id="Layer_2" data-name="Layer 2"><g id="Layer_1-2" data-name="Layer 1"><path class="cls-1" d="M21.78,0a1.79,1.79,0,0,0-1.39.87,4.09,4.09,0,0,0-.49,1.31,2.92,2.92,0,0,0,.71,2.58,1,1,0,0,0,.48.29,1.3,1.3,0,0,0,1.05-.16,1.49,1.49,0,0,0,.48-.4A2.85,2.85,0,0,0,23.31,3,3.25,3.25,0,0,0,23.06.92a1.85,1.85,0,0,0-.71-.78A1.3,1.3,0,0,0,21.78,0Z"/><path class="cls-1" d="M26.41,1.47a2.6,2.6,0,0,0-2.07,1.39,3.48,3.48,0,0,0-.4.9,2.42,2.42,0,0,0,0,1.55,1.29,1.29,0,0,0,1,.91A2.23,2.23,0,0,0,26,6a3.45,3.45,0,0,0,1.66-2.31,4,4,0,0,0,.07-.46,1.79,1.79,0,0,0-.66-1.54A1.3,1.3,0,0,0,26.41,1.47Z"/><path class="cls-1" d="M17.37,3a2.73,2.73,0,0,0-.42.23,2.11,2.11,0,0,0-.58.79,3.55,3.55,0,0,0-.22,1.3,3.33,3.33,0,0,0,.38,1.43,1.75,1.75,0,0,0,1.32.94,1.12,1.12,0,0,0,.6-.15,1.85,1.85,0,0,0,.75-.83A2.07,2.07,0,0,0,19.4,6a3.25,3.25,0,0,0-.14-1.68,2.28,2.28,0,0,0-1-1.23A1.11,1.11,0,0,0,17.37,3Z"/><path class="cls-1" d="M28,6.35a2.4,2.4,0,0,0-1.1.32,3.06,3.06,0,0,0-1.33,1.38,2.11,2.11,0,0,0-.2.54,1.69,1.69,0,0,0,.05,1.27,1.1,1.1,0,0,0,1.07.66,2.35,2.35,0,0,0,1.14-.31A3.21,3.21,0,0,0,29,8.77a2.8,2.8,0,0,0,.27-1.13,1.28,1.28,0,0,0-.76-1.19A2,2,0,0,0,28,6.35Z"/><path class="cls-1" d="M21.71,7.22a2.64,2.64,0,0,0-1.11.12,7.64,7.64,0,0,0-2.86,1.81,5.46,5.46,0,0,0-1.18,1.38,2.15,2.15,0,0,0-.25.83,1.27,1.27,0,0,0,1,1.18,3,3,0,0,0,1.39,0,3.43,3.43,0,0,1,2,.18,5.41,5.41,0,0,1,1.24.79,4.44,4.44,0,0,0,1.21.76A1.35,1.35,0,0,0,25,13.35,5.34,5.34,0,0,0,25,12a8.39,8.39,0,0,0-.5-2.36,3.76,3.76,0,0,0-2-2.16A3.7,3.7,0,0,0,21.71,7.22Z"/><path class="cls-1" d="M5.4,8.32a1.71,1.71,0,0,0-.9.52,2.49,2.49,0,0,0-.59,1.08,2.93,2.93,0,0,0-.2,1,2.83,2.83,0,0,0,.51,1.82,2.17,2.17,0,0,0,.51.5,1.37,1.37,0,0,0,1.38-.15A2.83,2.83,0,0,0,7.21,11a2.58,2.58,0,0,0-1-2.52A1.18,1.18,0,0,0,5.4,8.32Z"/><path class="cls-1" d="M10.68,9.81a1.82,1.82,0,0,0-.51-.05A2.87,2.87,0,0,0,8,11.58a4.4,4.4,0,0,0-.3,1.05,1.76,1.76,0,0,0,.71,1.74,1.21,1.21,0,0,0,.58.14,2.76,2.76,0,0,0,2.12-1.46,3.64,3.64,0,0,0,.51-1.78,1.63,1.63,0,0,0-.75-1.39Z"/><path class="cls-1" d="M1.33,11.28A1.8,1.8,0,0,0,.19,12.4a3.72,3.72,0,0,0-.18.87,2.64,2.64,0,0,0,1.2,2.6,1.1,1.1,0,0,0,1.13,0,1.79,1.79,0,0,0,.77-.94,3.13,3.13,0,0,0,.19-1A2.63,2.63,0,0,0,2,11.33,1.12,1.12,0,0,0,1.33,11.28Z"/><path class="cls-1" d="M11.21,14.75a3.38,3.38,0,0,0-.84.44,3.12,3.12,0,0,0-1.13,1.6,1.67,1.67,0,0,0,.06,1.4,1,1,0,0,0,.42.47,2.13,2.13,0,0,0,2.09-.37,3.76,3.76,0,0,0,.9-1A2.74,2.74,0,0,0,13,15.64a1.29,1.29,0,0,0-.62-.84A1.43,1.43,0,0,0,11.21,14.75Z"/><path class="cls-1" d="M5.53,15.51a2.8,2.8,0,0,0-1.1.12A6.77,6.77,0,0,0,2.11,17,5.4,5.4,0,0,0,.28,19.13a1.13,1.13,0,0,0,0,1.05,1.27,1.27,0,0,0,.75.62,2.64,2.64,0,0,0,1.4,0,3.6,3.6,0,0,1,2,.16,4.56,4.56,0,0,1,1.23.78,3.87,3.87,0,0,0,1.36.81,1.2,1.2,0,0,0,.41.07A1.37,1.37,0,0,0,8.64,22a1,1,0,0,0,.16-.35A1.81,1.81,0,0,0,8.88,21a7.47,7.47,0,0,0-.41-2.91,3.86,3.86,0,0,0-2-2.37A4.63,4.63,0,0,0,5.53,15.51Z"/></g></g></svg>